<?xml version="1.0" standalone="no"?>
<!DOCTYPE svg PUBLIC "-//W3C//DTD SVG 20010904//EN"
 "http://www.w3.org/TR/2001/REC-SVG-20010904/DTD/svg10.dtd">
<svg version="1.0" xmlns="http://www.w3.org/2000/svg"
 width="1000.000000pt" height="1000.000000pt" viewBox="0 0 1000.000000 1000.000000"
 preserveAspectRatio="xMidYMid meet">
<metadata>
Created by potrace 1.16, written by Peter Selinger 2001-2019
</metadata>
<g transform="translate(0.000000,1000.000000) scale(0.100000,-0.100000)"
fill="#000000" stroke="none">
<path d="M0 5000 l0 -5000 5000 0 5000 0 0 5000 0 5000 -5000 0 -5000 0 0
-5000z m4419 2821 c54 -54 71 -82 76 -127 3 -22 7 -54 10 -72 5 -24 1 -39 -14
-59 -12 -14 -21 -31 -21 -38 0 -18 -135 -73 -148 -61 -3 3 2 6 11 6 22 0 22 1
-7 52 -13 24 -27 65 -29 92 -6 47 -5 48 19 42 34 -9 31 9 -12 56 -27 30 -34
46 -32 70 2 17 9 33 16 36 11 3 11 0 1 -16 -20 -31 1 -65 61 -99 28 -17 51
-33 51 -37 -4 -29 3 -49 24 -72 14 -15 25 -24 25 -21 0 3 3 12 6 20 3 9 -3 16
-16 20 -17 4 -20 10 -14 34 4 15 10 32 14 37 9 9 -43 58 -73 69 -10 4 -15 12
-11 18 4 8 -1 9 -17 4 -19 -5 -21 -4 -9 4 25 18 72 12 99 -11 21 -19 23 -20
11 -3 -8 11 -23 26 -32 33 -10 7 -18 20 -18 28 0 12 -19 19 -42 15 -5 0 -8 4
-8 9 0 23 43 7 79 -29z m549 -30 c-42 -27 -130 -113 -193 -189 -19 -23 -34
-32 -47 -29 -16 5 -87 -11 -180 -39 -15 -4 -18 1 -18 34 0 22 -7 58 -15 81
-10 31 -11 41 -2 41 7 0 23 12 36 26 14 15 30 23 39 19 9 -3 19 0 24 7 12 20
10 -19 -3 -43 -10 -19 -9 -20 10 -9 19 10 22 8 27 -19 4 -17 10 -28 15 -26 4
3 5 13 2 22 -4 11 -3 14 5 9 7 -4 12 -14 12 -22 0 -8 4 -13 10 -9 5 3 6 13 3
23 -3 9 -2 14 2 9 5 -4 27 11 50 33 40 39 107 80 132 80 7 0 13 4 13 9 0 12
25 18 79 20 l45 1 -46 -29z m937 -1947 c0 -10 4 -25 8 -31 5 -8 3 -13 -6 -13
-22 0 -41 -26 -26 -36 7 -4 9 -3 5 4 -3 6 -1 14 5 17 13 8 15 6 23 -22 5 -16
3 -23 -6 -23 -8 0 -14 -12 -15 -27 -4 -61 -15 -94 -30 -88 -11 4 -13 1 -9 -11
3 -9 -3 -31 -14 -49 -11 -17 -17 -35 -13 -39 4 -4 0 -4 -10 0 -13 5 -16 2 -11
-9 3 -10 -5 -26 -20 -42 -15 -15 -24 -30 -21 -36 3 -5 0 -6 -8 -3 -8 3 -18 0
-23 -7 -4 -7 -3 -10 4 -5 6 4 10 -1 9 -13 -1 -15 -4 -17 -14 -9 -10 8 -13 6
-13 -5 0 -9 -12 -25 -26 -36 -15 -12 -23 -21 -18 -21 5 0 -2 -7 -14 -16 -21
-14 -42 -12 -42 5 0 5 11 20 25 35 14 15 25 31 25 37 0 5 5 9 11 9 5 0 7 -5 3
-12 -4 -6 -3 -8 4 -5 5 4 8 16 5 26 -3 10 1 22 8 26 8 6 10 4 4 -5 -5 -9 -4
-11 3 -6 9 5 9 13 1 29 -15 29 -24 37 -15 13 4 -13 2 -17 -8 -13 -11 4 -13 1
-9 -10 4 -11 3 -14 -5 -9 -15 9 -42 -17 -42 -39 0 -9 -4 -14 -9 -10 -9 5 -111
-89 -111 -103 0 -13 -77 -92 -88 -92 -7 0 -12 -6 -12 -14 0 -8 -13 -24 -30
-36 -21 -15 -28 -17 -24 -6 3 8 12 17 20 20 9 3 12 11 8 17 -4 7 -3 9 3 6 5
-3 17 7 27 24 9 16 22 29 27 29 6 0 8 4 4 9 -3 6 1 13 8 18 7 4 26 29 42 55
17 27 36 48 43 48 7 0 11 4 8 9 -6 9 58 93 75 99 5 2 7 8 4 13 -4 5 0 6 8 3
10 -3 21 9 35 38 11 24 30 53 41 65 12 12 21 25 21 29 0 4 8 14 18 23 9 9 24
30 32 46 8 17 25 40 37 52 13 12 23 29 23 37 0 9 11 18 25 22 20 5 23 9 14 20
-9 11 -8 14 1 14 7 0 10 7 6 16 -4 10 -1 14 6 11 7 -2 13 -12 13 -23z m1425
-2117 c0 -5 -7 -15 -15 -23 -17 -18 -20 -50 -5 -59 6 -4 8 -15 5 -26 -4 -12
-1 -21 9 -25 18 -7 21 -39 6 -57 -6 -7 -19 -23 -31 -37 -19 -24 -20 -24 -14
-2 4 13 2 22 -4 22 -12 0 -14 -20 -5 -45 4 -9 10 -12 13 -7 3 5 14 6 24 3 15
-6 11 -10 -22 -26 -44 -21 -53 -35 -22 -32 11 0 17 5 15 9 -3 4 6 8 20 8 14 0
26 -4 26 -10 0 -5 -5 -10 -11 -10 -14 0 -33 -21 -37 -40 -2 -11 1 -11 11 3 19
24 30 22 17 -4 -8 -14 -8 -34 -1 -68 5 -26 7 -57 4 -69 -3 -13 -1 -22 6 -22 5
0 8 -6 5 -14 -3 -8 -1 -17 5 -21 14 -8 14 -45 1 -45 -5 0 -10 9 -10 19 0 24
-16 36 -23 19 -3 -9 -10 -8 -23 6 -11 10 -14 16 -7 12 14 -7 43 3 43 15 0 6
-9 5 -20 -1 -11 -6 -20 -7 -20 -3 0 4 -5 2 -12 -5 -16 -16 -31 -15 -22 1 5 8
2 7 -9 -2 -15 -12 -17 -12 -11 3 3 9 16 16 28 17 11 0 15 3 8 6 -10 4 -10 8
-1 19 7 8 8 18 4 22 -4 4 -10 1 -12 -5 -3 -7 -11 -13 -19 -13 -9 0 -12 -4 -9
-10 3 -5 2 -10 -3 -10 -5 0 -12 -9 -15 -20 -3 -11 0 -20 6 -20 7 0 6 -5 -2
-12 -11 -10 -14 -10 -18 0 -6 17 -23 15 -23 -3 0 -8 8 -15 18 -15 24 0 32 -8
25 -26 -3 -9 -13 -12 -25 -8 -15 4 -18 3 -13 -7 6 -9 3 -11 -9 -6 -10 4 -20 7
-22 7 -2 0 -4 5 -4 10 0 6 7 10 15 10 8 0 15 5 15 11 0 6 -7 8 -15 5 -8 -3
-22 -9 -30 -12 -8 -3 -15 -2 -15 4 0 6 12 15 28 21 19 8 21 10 7 10 -35 -2
-40 1 -25 12 15 10 7 9 -52 -7 -10 -3 -18 -1 -18 4 0 6 -7 12 -15 16 -21 8
-19 0 7 -24 12 -11 29 -18 38 -15 13 4 17 -1 15 -22 -2 -41 -33 -43 -48 -4
-13 35 -27 41 -27 11 0 -11 9 -25 20 -32 24 -15 26 -28 5 -28 -8 0 -15 -7 -15
-16 0 -14 1 -14 16 0 19 20 38 21 31 2 -4 -11 -1 -13 11 -10 14 5 15 4 2 -5
-22 -15 -5 -24 19 -10 30 19 37 4 12 -27 -11 -15 -21 -23 -21 -19 0 5 7 17 17
27 9 10 11 18 5 18 -6 0 -14 -5 -17 -11 -4 -6 -13 -8 -21 -5 -16 6 -31 -13
-18 -23 15 -10 40 -45 27 -38 -6 4 -17 1 -25 -6 -15 -15 -96 -42 -103 -35 -3
3 4 17 16 32 l21 26 -29 -10 -28 -11 30 25 c32 25 50 18 39 -16 -3 -10 -1 -18
5 -18 6 0 11 6 11 13 0 8 3 7 10 -3 8 -12 10 -12 16 3 3 10 -1 28 -11 43 -12
19 -13 24 -3 22 8 -2 15 2 16 7 1 6 -9 10 -22 10 -13 1 -30 6 -38 13 -8 6 -19
8 -23 4 -5 -4 -5 -1 -1 6 4 6 2 12 -3 12 -6 0 -11 -9 -11 -20 0 -11 -2 -20 -4
-20 -13 0 -36 13 -36 21 0 4 8 5 17 2 13 -5 15 -2 10 11 -4 10 -3 15 3 11 6
-3 10 -1 10 5 0 6 5 8 12 4 7 -4 8 -3 4 4 -10 16 26 16 42 0 8 -8 12 -8 12 -1
0 6 -13 15 -28 21 -23 8 -31 6 -38 -6 -7 -11 -16 -13 -30 -8 -18 8 -18 8 4 17
12 4 22 11 22 14 0 4 -4 3 -10 0 -5 -3 -10 0 -10 7 0 8 -5 19 -12 26 -17 17
-41 -17 -25 -36 8 -10 7 -16 -4 -23 -11 -7 -10 -9 6 -10 19 0 18 -1 -2 -11
-26 -13 -32 -33 -7 -24 15 6 15 4 0 -18 -9 -14 -12 -27 -7 -30 5 -3 11 1 15 9
3 8 13 15 23 14 11 0 13 -3 5 -6 -6 -2 -10 -9 -6 -14 4 -8 -17 -14 -38 -10
-13 2 -9 -16 6 -28 11 -10 19 -8 35 5 11 10 18 21 16 24 -8 13 32 41 48 34 22
-8 14 -19 -34 -50 -37 -23 -38 -26 -23 -41 9 -9 14 -26 11 -40 -5 -25 3 -29
21 -11 8 8 12 8 12 1 0 -17 -29 -24 -52 -12 -11 6 -22 8 -25 5 -3 -3 2 -8 11
-12 9 -3 16 -11 16 -17 0 -8 -3 -8 -11 0 -9 9 -16 9 -31 0 -15 -10 -20 -9 -28
3 -7 11 -4 16 13 21 15 3 21 12 19 25 -2 16 -1 16 7 4 10 -13 15 -8 12 12 0 4
7 4 17 1 15 -6 15 -5 3 10 -10 13 -17 14 -27 6 -14 -11 -34 -5 -34 11 0 5 8 7
18 4 12 -4 10 0 -6 13 -15 12 -21 25 -16 36 3 10 1 17 -5 17 -14 0 -31 -41
-23 -55 3 -6 1 -6 -4 -2 -14 13 -12 57 3 57 7 0 13 5 13 11 0 5 4 8 9 4 5 -3
12 -1 16 5 3 5 1 10 -6 10 -8 0 -8 5 2 16 17 21 20 45 7 61 -6 7 -7 13 -2 13
5 0 3 4 -5 9 -12 8 -11 12 4 28 18 17 19 17 12 0 -5 -13 -3 -17 5 -14 7 2 12
10 10 17 -1 6 7 14 18 17 11 3 20 10 20 15 0 5 -4 6 -10 3 -6 -4 -7 1 -3 11 4
12 3 15 -6 10 -15 -10 -44 13 -37 30 2 6 -5 15 -17 18 -18 4 -19 7 -8 18 10
10 15 10 18 1 2 -7 11 -9 19 -6 17 6 19 -23 2 -30 -19 -8 10 -26 33 -22 11 2
16 -1 14 -8 -7 -19 9 -37 39 -43 17 -3 25 -1 21 6 -3 6 0 7 10 4 10 -4 19 3
28 23 7 18 18 28 26 25 7 -2 4 5 -8 17 -11 11 -27 21 -35 21 -8 0 -22 7 -30
16 -14 13 -16 13 -16 1 0 -8 7 -17 15 -21 17 -6 20 -26 4 -26 -5 0 -7 5 -4 10
3 6 2 10 -4 10 -5 0 -11 -8 -13 -17 -3 -10 -5 1 -6 25 0 23 3 42 8 42 5 0 17
3 27 6 15 5 15 4 3 -5 -25 -17 -5 -22 31 -7 28 13 26 22 -4 17 -5 -1 -6 3 -3
7 3 5 16 7 28 5 16 -3 23 -11 23 -29 0 -25 -10 -33 -17 -12 -3 8 -9 8 -24 0
-16 -10 -16 -11 -2 -12 9 0 23 -7 31 -15 13 -13 16 -13 21 0 3 8 11 15 19 15
22 0 37 21 27 39 -7 14 -4 16 23 13 18 -2 43 1 57 7 18 7 20 10 8 10 -24 1
-23 17 1 24 26 7 24 47 -2 47 -13 0 -17 5 -13 16 3 9 6 22 6 30 0 8 5 14 10
14 6 0 10 -9 10 -20 0 -11 5 -20 10 -20 6 0 10 9 10 21 0 12 11 30 25 41 19
15 24 26 19 42 -16 52 -16 52 -6 38 7 -11 10 -9 15 7 3 12 1 24 -4 27 -14 8
-11 50 5 64 8 6 12 18 9 26 -4 11 -9 12 -19 3 -8 -6 -11 -16 -7 -22 3 -6 1 -7
-5 -3 -9 5 -7 14 5 30 16 21 19 22 30 7 7 -9 13 -20 13 -24z"/>
</g>
</svg>
